<svg xmlns="http://www.w3.org/2000/svg" version="1.1" xmlns:xlink="http://www.w3.org/1999/xlink" xmlns:svgjs="http://svgjs.com/svgjs" width="1440" height="560" preserveAspectRatio="none" viewBox="0 0 1440 560">
    <g mask="url(&quot;#SvgjsMask1011&quot;)" fill="none">
        <rect width="1440" height="560" x="0" y="0" fill="#0e2a47"></rect>
        <path d="M0,351.017C66.573,349.98,129.205,324.196,185.484,288.619C242.08,252.841,289.007,205.274,322.374,147.223C358.182,84.927,395.897,15.622,383.037,-55.072C370.276,-125.224,302.849,-168.084,255.344,-221.257C208.645,-273.528,176.218,-353.612,106.92,-364.137C36.874,-374.775,-11.706,-291.325,-79.918,-272.175C-149.441,-252.657,-236.6,-299.572,-291.238,-252.359C-345.068,-205.844,-338.649,-119.821,-338.563,-48.678C-338.486,15.167,-316.247,74.249,-290.771,132.791C-264.853,192.347,-241.185,255.471,-189.237,294.458C-135.493,334.794,-67.189,352.064,0,351.017" fill="#0a1f35"></path>
        <path d="M1440 1112.8429999999998C1551.384 1118.114 1674.198 1130.288 1764.152 1064.3899999999999 1853.136 999.202 1875.8890000000001 878.729 1904.862 772.295 1930.041 679.798 1931.518 586.149 1920.248 490.951 1908.718 393.555 1899.136 291.757 1838.819 214.42200000000003 1777.117 135.312 1682.785 89.20999999999998 1586.079 62.5 1490.415 36.077999999999975 1386.46 27.03099999999995 1294.375 64.04700000000003 1205.864 99.62599999999998 1163.3029999999999 194.62 1094.09 260.267 1015.326 334.973 893.532 373.454 859.484 476.534 824.519 582.389 866.702 699.317 916.05 799.28 964.4580000000001 897.3389999999999 1041.147 978.456 1134.984 1034.613 1226.911 1089.6280000000002 1332.988 1107.778 1440 1112.8429999999998" fill="#12355a"></path>
    </g>
    <defs>
        <mask id="SvgjsMask1011">
            <rect width="1440" height="560" fill="#ffffff"></rect>
        </mask>
    </defs>
</svg>
